<?xml version="1.0" encoding="utf-8"?>
<!-- Generator: Adobe Illustrator 19.0.0, SVG Export Plug-In . SVG Version: 6.00 Build 0)  -->
<svg version="1.1" id="Capa_1" xmlns="http://www.w3.org/2000/svg" xmlns:xlink="http://www.w3.org/1999/xlink" x="0px" y="0px"
	 viewBox="-1133 696.7 53.3 53.3" style="enable-background:new -1133 696.7 53.3 53.3;" xml:space="preserve">
<style type="text/css">
	.st0{fill:#3C3C3C;}
	.st1{fill:#FFFFFF;}
	.st2{fill:#5CB958;}
</style>
<g>
	<g>
		<polygon class="st0" points="-1098,708.3 -1089,717.3 -1089.3,717.6 -1087,717.6 -1087,708.3 		"/>
		<path class="st0" d="M-1109.6,708.3h-11.5c-2.6,0-4.7,2.1-4.7,4.7c0,2.6,2.1,4.7,4.7,4.7h2.8l-0.4-0.4L-1109.6,708.3z"/>
	</g>
	<g>
		<path class="st1" d="M-1114.7,709.9c-0.4,0-0.9,0.1-1.3,0.1c-0.4,0-0.7,0.3-0.6,0.7c0,0.4,0.3,0.6,0.7,0.6c0,0,0,0,0,0
			c0.5,0,0.9,0,1.4-0.1c0.4,0,0.6-0.3,0.6-0.7C-1114,710.2-1114.3,709.9-1114.7,709.9z"/>
		<path class="st1" d="M-1118.6,710.1c-0.5,0-0.9,0-1.4,0.1c-0.4,0-0.6,0.3-0.6,0.7c0,0.4,0.3,0.6,0.7,0.6c0,0,0,0,0,0
			c0.4,0,0.9,0,1.3-0.1c0.4,0,0.7-0.3,0.6-0.7C-1118,710.4-1118.3,710.1-1118.6,710.1z"/>
		<path class="st1" d="M-1122.8,710.6c-0.6,0.2-1.1,0.5-1.4,0.8c-0.3,0.3-0.3,0.7,0,0.9c0.1,0.1,0.3,0.2,0.5,0.2s0.3-0.1,0.5-0.2
			c0.2-0.2,0.5-0.4,0.9-0.5c0.3-0.1,0.5-0.5,0.4-0.8C-1122.1,710.7-1122.4,710.5-1122.8,710.6z"/>
		<path class="st1" d="M-1092.3,710.3h-1.3c-0.4,0-0.7,0.3-0.7,0.7s0.3,0.7,0.7,0.7h1.3c0.4,0,0.7-0.3,0.7-0.7
			S-1092,710.3-1092.3,710.3z"/>
		<path class="st1" d="M-1088.3,710.3h-1.3c-0.4,0-0.7,0.3-0.7,0.7s0.3,0.7,0.7,0.7h1.3c0.4,0,0.7-0.3,0.7-0.7
			S-1088,710.3-1088.3,710.3z"/>
	</g>
	<g>
		<path class="st0" d="M-1088.4,719.2C-1088.4,719.2-1088.4,719.2-1088.4,719.2l-28.3,0c-0.3,0-0.5-0.2-0.6-0.4
			c-0.1-0.2,0-0.5,0.1-0.7l14.1-14.1c0.3-0.3,0.8-0.3,1.1,0l14.1,14.1c0.2,0.2,0.2,0.5,0.1,0.7
			C-1087.8,719.1-1088.1,719.2-1088.4,719.2z M-1115.1,717.9l25.1,0l-12.6-12.6L-1115.1,717.9z"/>
	</g>
	<g>
		<path class="st0" d="M-1116.7,719.2h-3.8c-0.3,0-0.5-0.2-0.6-0.4c-0.1-0.2,0-0.5,0.1-0.7l14.1-14.1c0.3-0.3,0.8-0.3,1.1,0l1.8,1.8
			c0.3,0.3,0.3,0.7,0,0.9l-12.2,12.2C-1116.3,719.1-1116.5,719.2-1116.7,719.2z M-1118.9,717.9h1.9l11.6-11.6l-1-1L-1118.9,717.9z"
			/>
	</g>
	<path class="st0" d="M-1094.8,718l0.2-0.2l-7.9-7.9c0,0-0.1,0-0.1,0l-7.9,7.9l0.2,0.2H-1094.8z"/>
	<path class="st2" d="M-1095,725.6h8v-8h-34c-2.6,0-4.7-2.1-4.7-4.7v25.9c0,2.3,1.8,4.1,4.1,4.1h34.6v-9.3h-8c-2.2,0-4-1.8-4-4
		S-1097.2,725.6-1095,725.6z"/>
	<path class="st1" d="M-1091,721h-1.3c-0.4,0-0.7-0.3-0.7-0.7s0.3-0.7,0.7-0.7h1.3c0.4,0,0.7,0.3,0.7,0.7S-1090.6,721-1091,721z
		 M-1095,721h-1.3c-0.4,0-0.7-0.3-0.7-0.7s0.3-0.7,0.7-0.7h1.3c0.4,0,0.7,0.3,0.7,0.7S-1094.6,721-1095,721z M-1099,721h-1.3
		c-0.4,0-0.7-0.3-0.7-0.7s0.3-0.7,0.7-0.7h1.3c0.4,0,0.7,0.3,0.7,0.7S-1098.6,721-1099,721z M-1103,721h-1.3c-0.4,0-0.7-0.3-0.7-0.7
		s0.3-0.7,0.7-0.7h1.3c0.4,0,0.7,0.3,0.7,0.7S-1102.6,721-1103,721z M-1107,721h-1.3c-0.4,0-0.7-0.3-0.7-0.7s0.3-0.7,0.7-0.7h1.3
		c0.4,0,0.7,0.3,0.7,0.7S-1106.6,721-1107,721z M-1111,721h-1.3c-0.4,0-0.7-0.3-0.7-0.7s0.3-0.7,0.7-0.7h1.3c0.4,0,0.7,0.3,0.7,0.7
		S-1110.7,721-1111,721z M-1115,721h-1.3c-0.4,0-0.7-0.3-0.7-0.7s0.3-0.7,0.7-0.7h1.3c0.4,0,0.7,0.3,0.7,0.7S-1114.7,721-1115,721z
		 M-1119,721h-1.3c-0.4,0-0.7-0.3-0.7-0.7s0.3-0.7,0.7-0.7h1.3c0.4,0,0.7,0.3,0.7,0.7S-1118.7,721-1119,721z M-1123,720.5
		c-0.1,0-0.2,0-0.3-0.1c-0.5-0.2-0.9-0.5-1.3-0.8c-0.3-0.2-0.3-0.7-0.1-0.9c0.2-0.3,0.7-0.3,0.9-0.1c0.3,0.3,0.6,0.5,1,0.6
		c0.3,0.2,0.5,0.5,0.3,0.9C-1122.5,720.4-1122.7,720.5-1123,720.5z"/>
	<path class="st1" d="M-1091,741h-1.3c-0.4,0-0.7-0.3-0.7-0.7s0.3-0.7,0.7-0.7h1.3c0.4,0,0.7,0.3,0.7,0.7S-1090.6,741-1091,741z
		 M-1095,741h-1.3c-0.4,0-0.7-0.3-0.7-0.7s0.3-0.7,0.7-0.7h1.3c0.4,0,0.7,0.3,0.7,0.7S-1094.6,741-1095,741z M-1099,741h-1.3
		c-0.4,0-0.7-0.3-0.7-0.7s0.3-0.7,0.7-0.7h1.3c0.4,0,0.7,0.3,0.7,0.7S-1098.6,741-1099,741z M-1103,741h-1.3c-0.4,0-0.7-0.3-0.7-0.7
		s0.3-0.7,0.7-0.7h1.3c0.4,0,0.7,0.3,0.7,0.7S-1102.6,741-1103,741z M-1107,741h-1.3c-0.4,0-0.7-0.3-0.7-0.7s0.3-0.7,0.7-0.7h1.3
		c0.4,0,0.7,0.3,0.7,0.7S-1106.6,741-1107,741z M-1111,741h-1.3c-0.4,0-0.7-0.3-0.7-0.7s0.3-0.7,0.7-0.7h1.3c0.4,0,0.7,0.3,0.7,0.7
		S-1110.7,741-1111,741z M-1115,741h-1.3c-0.4,0-0.7-0.3-0.7-0.7s0.3-0.7,0.7-0.7h1.3c0.4,0,0.7,0.3,0.7,0.7S-1114.7,741-1115,741z
		 M-1119,741h-1.3c-0.4,0-0.7-0.3-0.7-0.7s0.3-0.7,0.7-0.7h1.3c0.4,0,0.7,0.3,0.7,0.7S-1118.7,741-1119,741z M-1123,740.6
		c-0.1,0-0.2,0-0.3-0.1c-0.5-0.2-0.9-0.5-1.3-0.8c-0.3-0.2-0.3-0.7-0.1-0.9c0.2-0.3,0.7-0.3,0.9-0.1c0.3,0.3,0.6,0.5,1,0.6
		c0.3,0.2,0.5,0.5,0.3,0.9C-1122.5,740.4-1122.7,740.6-1123,740.6z"/>
	<circle class="st2" cx="-1094.3" cy="729.6" r="2"/>
</g>
</svg>
