<?xml version="1.0" encoding="utf-8"?>
<!-- Generator: Adobe Illustrator 19.0.0, SVG Export Plug-In . SVG Version: 6.00 Build 0)  -->
<svg version="1.1" id="Capa_1" xmlns="http://www.w3.org/2000/svg" xmlns:xlink="http://www.w3.org/1999/xlink" x="0px" y="0px"
	 viewBox="-1046.3 696.7 53.3 53.3" style="enable-background:new -1046.3 696.7 53.3 53.3;" xml:space="preserve">
<style type="text/css">
	.st0{fill:#5CB958;}
	.st1{fill:#3C3C3C;}
</style>
<rect x="-1042" y="723.8" class="st0" width="4" height="18.1"/>
<path class="st1" d="M-997.2,724.9c-1.4-1.8-2.8-1.8-6.1-0.1l-6.6,4.1c-0.9,0.5-3,0.7-4.9,0.7c0.4-0.7,0.2-1.5-0.5-2.5
	c-1.2-1.8-3.3-2.8-5.5-2.8h-3c-1.6,0-3.1-0.5-4.4-1.4c-2.8-2.1-7.1,0.2-9.2,1.5v-1.6h-5.4v19.9h5.4v-2.3h10c1.5,0,3.1-0.2,4.7-0.2
	l10-1.5c0.4,0,0.8-0.1,1.1-0.2c0.9-0.2,1.8-0.6,2.5-1.3l11.6-9.2C-996.6,727.2-996.5,725.8-997.2,724.9z M-1038.8,741.1h-2.3v-16.9
	h2.3v1.1v14.9V741.1z M-998.5,726.9l-11.6,9l-0.1,0.1c-0.5,0.5-1.1,0.8-1.8,0.9c-0.3,0.1-0.5,0.1-0.8,0.1l-10.1,1.5
	c-1.5,0.2-3,0.3-4.4,0.3h-10v-12.6c1.8-1.3,6.1-3.8,8.3-2.1c1.5,1.1,3.3,1.7,5.3,1.7h3c1.8,0,3.4,0.8,4.4,2.2
	c0.3,0.5,0.4,0.9,0.3,1.1c-0.2,0.4-1.1,0.5-2.1,0.6c-0.2,0-0.4,0-0.6,0c-0.1,0-0.2-0.1-0.4-0.1h-7.4c-2.4,0-3.8,1.1-3.8,3.1
	c0,0.5,0.3,0.8,0.8,0.8c0.5,0,0.8-0.3,0.8-0.8c0-0.4,0-1.5,2.3-1.5h7.4c0,0,0,0,0,0l0,0.1c0.2,0,0.5,0,1,0c0.1,0,0.2,0,0.4,0
	c3.6,0.1,7,0,8.7-0.9l6.6-4.1c3.2-1.6,3.5-1.2,4.1-0.3C-998.2,726.2-998.2,726.7-998.5,726.9z"/>
<path class="st0" d="M-1026.1,708.3L-1026.1,708.3c0.4-4.3,3.3-7.2,7.2-7.2c3,0,5.5,2.5,6.6,4.9l0.8,1.8l0.8-1.8
	c1.1-2.5,3.6-4.9,6.6-4.9c3.9,0,7.2,3.1,7.4,7.2c0,0,0.2,0.9-0.3,2.6c-0.6,2.4-2,4.6-4,6.4l-10.4,8.9l-10.4-8.9c-2-1.8-3.4-4-4-6.4
	C-1026.2,709.2-1026.1,708.3-1026.1,708.3z"/>
</svg>
