<?xml version="1.0" encoding="UTF-8"?>
<svg width="64px" height="64px" viewBox="0 0 47 46" version="1.1" xmlns="http://www.w3.org/2000/svg" xmlns:xlink="http://www.w3.org/1999/xlink">
    <!-- Generator: Sketch 43.1 (39012) - http://www.bohemiancoding.com/sketch -->
    <title>Group</title>
    <desc>Created with Sketch.</desc>
    <defs></defs>
    <g id="Page-1" stroke="none" stroke-width="1" fill="none" fill-rule="evenodd">
        <g id="Group">
            <polyline id="Fill-11" fill="#4FB694" points="45.991 46 45.991 30.542 34.897 30.542 34.897 35.408 23.803 35.408 23.803 39.914 12.709 39.914 12.709 42.497 1.615 42.497 1.615 46"></polyline>
            <path d="M38.692,14.432 C38.333,13.714 37.404,13.429 36.686,13.646 L32.322,14.867 L29.889,11.43 L26.528,9.499 C24.955,8.638 23.092,8.638 21.52,9.499 L17.582,11.715 C17.365,11.857 17.223,12 17.081,12.217 L14.505,16.513 C14.079,17.299 14.221,18.303 15.007,18.804 C15.726,19.231 16.654,19.021 17.155,18.377 L19.304,15.51 C19.948,14.649 20.876,14.006 21.954,13.721 L20.591,20.309 L19.805,24.171 L19.019,27.533 L13.652,33.761 C12.933,34.547 12.866,35.767 13.51,36.628 C14.371,37.698 15.943,37.698 16.804,36.703 L22.957,29.546 L23.96,26.11 C24.177,25.324 24.888,24.748 25.749,24.89 C26.677,25.032 27.321,25.893 27.179,26.754 L26.535,30.474 C26.318,31.62 27.037,32.765 28.107,33.049 C29.327,33.334 30.473,32.548 30.682,31.328 L31.61,26.462 C32.179,24.171 30.892,21.806 28.676,20.952 L27.89,20.668 L28.893,15.944 L30.899,18.737 L37.629,16.873 C38.692,16.656 39.261,15.436 38.692,14.432" id="Fill-12" fill="#FFFFFF"></path>
            <path d="M29.746,1.617 C31.565,1.617 33.04,3.091 33.04,4.911 C33.04,6.73 31.565,8.204 29.746,8.204 C27.927,8.204 26.453,6.73 26.453,4.911 C26.453,3.091 27.927,1.617 29.746,1.617" id="Fill-13" fill="#FFFFFF"></path>
            <path d="M29.746,2.335 C28.317,2.335 27.171,3.481 27.171,4.911 C27.171,6.34 28.317,7.486 29.746,7.486 C31.176,7.486 32.321,6.34 32.321,4.911 C32.322,3.481 31.176,2.335 29.746,2.335 Z M29.746,8.923 C27.531,8.923 25.741,7.134 25.741,4.918 C25.741,2.702 27.531,0.905 29.746,0.905 C31.962,0.905 33.751,2.695 33.751,4.918 C33.751,7.134 31.962,8.923 29.746,8.923 L29.746,8.923 Z" id="Fill-14" fill="#1B2D3F"></path>
            <polyline id="Fill-15" fill="#55B055" points="45.991 46 45.991 30.542 34.897 30.542 34.897 35.408 23.803 35.408 23.803 39.914 12.709 39.914 12.709 42.497 1.615 42.497 1.615 46"></polyline>
            <polygon id="Fill-16" fill="#FFFFFF" points="32.823 43.133 34.253 43.133 34.253 41.703 32.823 41.703"></polygon>
            <polygon id="Fill-17" fill="#FFFFFF" points="28.309 43.133 29.739 43.133 29.739 41.703 28.309 41.703"></polygon>
            <polygon id="Fill-18" fill="#FFFFFF" points="37.262 43.133 38.692 43.133 38.692 41.703 37.262 41.703"></polygon>
            <polygon id="Fill-19" fill="#FFFFFF" points="41.701 43.133 43.131 43.133 43.131 41.703 41.701 41.703"></polygon>
            <path d="M38.692,14.432 C38.333,13.714 37.404,13.429 36.686,13.646 L32.322,14.867 L29.889,11.43 L26.528,9.499 C24.955,8.638 23.092,8.638 21.52,9.499 L17.582,11.715 C17.365,11.857 17.223,12 17.081,12.217 L14.505,16.513 C14.079,17.299 14.221,18.303 15.007,18.804 C15.726,19.231 16.654,19.021 17.155,18.377 L19.304,15.51 C19.948,14.649 20.876,14.006 21.954,13.721 L20.591,20.309 L19.805,24.171 L19.019,27.533 L13.652,33.761 C12.933,34.547 12.866,35.767 13.51,36.628 C14.371,37.698 15.943,37.698 16.804,36.703 L22.957,29.546 L23.96,26.11 C24.177,25.324 24.888,24.748 25.749,24.89 C26.677,25.032 27.321,25.893 27.179,26.754 L26.535,30.474 C26.318,31.62 27.037,32.765 28.107,33.049 C29.327,33.334 30.473,32.548 30.682,31.328 L31.61,26.462 C32.179,24.171 30.892,21.806 28.676,20.952 L27.89,20.668 L28.893,15.944 L30.899,18.737 L37.629,16.873 C38.692,16.656 39.261,15.436 38.692,14.432" id="Fill-20" fill="#FFFFFF"></path>
            <path d="M29.746,1.617 C31.565,1.617 33.04,3.091 33.04,4.911 C33.04,6.73 31.565,8.204 29.746,8.204 C27.927,8.204 26.453,6.73 26.453,4.911 C26.453,3.091 27.927,1.617 29.746,1.617" id="Fill-21" fill="#FFFFFF"></path>
            <path d="M29.746,2.335 C28.317,2.335 27.171,3.481 27.171,4.911 C27.171,6.34 28.317,7.486 29.746,7.486 C31.176,7.486 32.321,6.34 32.321,4.911 C32.322,3.481 31.176,2.335 29.746,2.335 Z M29.746,8.923 C27.531,8.923 25.741,7.134 25.741,4.918 C25.741,2.702 27.531,0.905 29.746,0.905 C31.962,0.905 33.751,2.695 33.751,4.918 C33.751,7.134 31.962,8.923 29.746,8.923 L29.746,8.923 Z" id="Fill-22" fill="#363734"></path>
            <path d="M22.8,12.786 L20.434,24.381 L19.573,27.959 L14.131,34.33 C13.63,34.906 13.63,35.692 14.056,36.261 C14.625,36.905 15.703,36.98 16.272,36.336 L22.283,29.322 L23.211,26.028 C23.571,24.883 24.641,24.164 25.719,24.239 C26.363,24.313 26.939,24.665 27.291,25.167 C27.643,25.668 27.86,26.312 27.718,26.956 L27.074,30.609 C26.932,31.395 27.433,32.181 28.145,32.331 C28.931,32.548 29.717,31.972 29.866,31.186 L30.794,26.32 C31.296,24.314 30.226,22.315 28.287,21.596 L26.924,21.095 L28.429,14.223 L31.079,17.876 L37.374,16.154 C37.659,16.079 37.943,15.87 38.018,15.585 C38.16,15.301 38.093,14.941 37.944,14.657 C37.726,14.298 37.225,14.088 36.723,14.23 L31.962,15.578 L29.387,11.999 L26.168,10.21 C24.881,9.492 23.159,9.492 21.872,10.21 L17.934,12.426 C17.859,12.501 17.717,12.568 17.717,12.643 L15.142,16.94 C15,17.157 15,17.441 15,17.726 C15.074,17.943 15.217,18.153 15.359,18.227 C15.786,18.445 16.287,18.37 16.579,18.01 L18.728,15.143 C19.514,14.14 20.592,13.429 21.737,13.07 L22.8,12.786 Z M15.142,38.2 C14.281,38.2 13.495,37.841 12.926,37.129 C12.065,36.059 12.14,34.479 13.068,33.409 L18.293,27.323 L19.012,24.104 L20.876,15.016 C20.449,15.301 20.09,15.66 19.805,16.019 L17.657,18.887 C16.938,19.815 15.583,20.032 14.58,19.456 C14.079,19.171 13.719,18.669 13.577,18.026 C13.435,17.382 13.502,16.738 13.861,16.162 L16.436,11.865 C16.654,11.58 16.863,11.289 17.223,11.146 L21.16,8.931 C22.874,7.927 25.165,7.927 26.887,8.931 L30.398,10.937 L32.688,14.088 L36.551,13.018 C37.621,12.733 38.842,13.16 39.418,14.088 C39.777,14.732 39.845,15.518 39.56,16.237 C39.276,16.955 38.699,17.457 37.988,17.666 L30.757,19.673 L29.185,17.741 L28.616,20.316 L28.833,20.391 C31.408,21.319 32.838,24.044 32.194,26.687 L31.266,31.552 C30.982,32.915 29.836,33.843 28.474,33.843 C28.257,33.843 28.047,33.843 27.83,33.768 C26.325,33.409 25.397,31.904 25.682,30.407 L26.325,26.687 C26.4,26.47 26.325,26.185 26.183,25.968 C26.041,25.751 25.824,25.609 25.539,25.609 C25.113,25.534 24.678,25.893 24.536,26.328 L23.466,29.906 L17.215,37.122 C16.714,37.841 15.928,38.2 15.142,38.2 L15.142,38.2 Z" id="Fill-23" fill="#363734"></path>
            <polyline id="Fill-24" fill="#363734" points="46.709 46 45.279 46 45.279 31.253 35.615 31.253 35.615 36.126 24.521 36.126 24.521 40.633 13.42 40.633 13.42 43.208 2.326 43.208 2.326 46 0.896 46 0.896 41.778 11.99 41.778 11.99 39.203 23.084 39.203 23.084 34.689 34.185 34.689 34.185 29.823 46.709 29.823 46.709 46"></polyline>
        </g>
    </g>
</svg>
