<?xml version="1.0" encoding="UTF-8"?>
<svg width="80px" height="72px" viewBox="0 0 80 72" version="1.1" xmlns="http://www.w3.org/2000/svg" xmlns:xlink="http://www.w3.org/1999/xlink">
    <!-- Generator: Sketch 43.1 (39012) - http://www.bohemiancoding.com/sketch -->
    <title>Chart Up</title>
    <desc>Created with Sketch.</desc>
    <defs></defs>
    <g id="Page-1" stroke="none" stroke-width="1" fill="none" fill-rule="evenodd">
        <g id="Leroy" transform="translate(-834.000000, -843.000000)" stroke="#4EAF46" fill="#000000">
            <g id="Group-15" transform="translate(80.000000, 843.000000)">
                <path d="M815.610951,70.1480765 C806.260238,70.1480765 798.653413,62.5412514 798.653413,53.1905388 C798.653413,52.9792617 798.657673,52.7679847 798.66534,52.5567077 C798.762459,49.9097813 799.451666,47.3940511 800.715068,45.078523 C802.515182,41.7824309 805.398092,39.141468 808.832195,37.6429345 C810.973931,36.7075225 813.253678,36.233853 815.610951,36.233853 C824.961663,36.233853 832.567637,43.8406781 832.567637,53.1905388 C832.567637,62.5412514 824.961663,70.1480765 815.610951,70.1480765 L815.610951,70.1480765 Z M815.48657,1.85192352 L815.48657,35.3878929 C813.056884,35.4049314 810.703019,35.8964913 808.491426,36.8617206 C806.307946,37.8150231 804.342558,39.2121776 802.707717,40.9305074 L802.707717,1.85192352 L815.48657,1.85192352 Z M782.261553,18.0384704 L795.040406,18.0384704 L795.040406,61.48657 L782.261553,61.48657 L782.261553,18.0384704 Z M762.667312,32.5211703 L775.446165,32.5211703 L775.446165,61.48657 L762.667312,61.48657 L762.667312,32.5211703 Z M816.338494,35.4185622 L816.338494,1 L801.855794,1 L801.855794,41.892329 L801.861757,41.892329 C801.148697,42.7570314 800.507199,43.6822204 799.967931,44.6704516 C798.640634,47.1026933 797.915647,49.7453601 797.813417,52.5251865 C797.805749,52.7458347 797.80149,52.9681867 797.80149,53.1905388 C797.80149,56.1859019 798.552886,59.0066207 799.864848,61.48657 L795.892329,61.48657 L795.892329,17.1865469 L781.409629,17.1865469 L781.409629,61.48657 L776.298088,61.48657 L776.298088,31.6692468 L761.815388,31.6692468 L761.815388,61.48657 L755,61.48657 L755,62.3384936 L761.815388,62.3384936 L776.298088,62.3384936 L781.409629,62.3384936 L795.892329,62.3384936 L800.151947,62.3384936 L800.151947,61.999428 C803.223983,67.3665462 808.995765,71 815.610951,71 C825.430221,71 833.41956,63.0106612 833.41956,53.1905388 C833.41956,43.6166222 825.81955,35.8044836 816.338494,35.4185622 L816.338494,35.4185622 Z M824.006231,45.3923716 L824.006231,45.3003639 L824.006231,44.4484404 L809.523531,44.4484404 L809.523531,45.3003639 L823.154308,45.3003639 L823.154308,45.3872601 L807.142405,61.3991627 L807.744715,62.0014726 L823.154308,46.59188 L823.154308,58.0792167 L824.006231,58.0792167 L824.006231,45.7399564 L824.180024,45.566164 L824.006231,45.3923716 Z" id="Chart-Up"></path>
            </g>
        </g>
    </g>
</svg>