<?xml version="1.0" encoding="UTF-8"?>
<svg width="88px" height="72px" viewBox="0 0 88 72" version="1.1" xmlns="http://www.w3.org/2000/svg" xmlns:xlink="http://www.w3.org/1999/xlink">
    <!-- Generator: Sketch 43.1 (39012) - http://www.bohemiancoding.com/sketch -->
    <title>Gold</title>
    <desc>Created with Sketch.</desc>
    <defs></defs>
    <g id="Page-1" stroke="none" stroke-width="1" fill="none" fill-rule="evenodd">
        <g id="Leroy" transform="translate(-385.000000, -842.000000)" stroke="#4EAF46" fill="#FFFFFF">
            <g id="Group-15" transform="translate(80.000000, 843.000000)">
                <path d="M367.435366,54.7215757 C367.442866,54.6907422 368.22537,51.6665575 370.587051,51.6665575 L378.184596,51.6665575 L384.717969,51.6665575 C387.070483,51.6665575 387.862987,54.6915755 387.869654,54.7182424 L391.348008,69.1666617 L363.957012,69.1666617 L367.435366,54.7215757 Z M363.427842,67.8033203 L360.230323,54.5190745 C360.203656,54.4165739 359.76282,52.7223972 358.520313,51.6665575 L368.335371,51.6665575 C367.092864,52.7223972 366.652028,54.4174072 366.625361,54.5232412 L363.427842,67.8033203 Z M335.507676,69.1666617 L338.98603,54.7215757 C338.99353,54.6907422 339.776868,51.6665575 342.138548,51.6665575 L348.671087,51.6665575 L349.736094,51.6665575 L356.269466,51.6665575 C358.620313,51.6665575 359.413651,54.6915755 359.420318,54.7182424 L362.899505,69.1666617 L335.507676,69.1666617 Z M334.978506,67.8033203 L331.780153,54.5199079 C331.75432,54.4165739 331.313484,52.7223972 330.070977,51.6665575 L339.886035,51.6665575 C338.643528,52.7223972 338.202692,54.4174072 338.176858,54.5232412 L334.978506,67.8033203 Z M307.05834,69.1666617 L310.536694,54.7215757 C310.54336,54.6907422 311.326698,51.6665575 313.688379,51.6665575 L320.221751,51.6665575 L327.819297,51.6665575 C330.170977,51.6665575 330.963482,54.6915755 330.970149,54.7182424 L334.449336,69.1666617 L307.05834,69.1666617 Z M324.756778,36.8189692 C324.788445,36.7106352 325.552616,34.1664534 327.91263,34.1664534 L334.449336,34.1664534 L342.043548,34.1664534 C344.403562,34.1664534 345.167733,36.7106352 345.196067,36.8039691 L348.671087,50.8332192 L342.138548,50.8332192 L327.819297,50.8332192 L321.285924,50.8332192 L324.756778,36.8189692 Z M338.98603,18.8880291 C338.99353,18.8571956 339.776868,15.8330109 342.138548,15.8330109 L356.269466,15.8330109 C358.620313,15.8330109 359.413651,18.8580289 359.420318,18.8846957 L362.899505,33.3331151 L356.3628,33.3331151 L342.043548,33.3331151 L335.507676,33.3331151 L338.98603,18.8880291 Z M349.20359,49.5182114 L346.000238,36.5898011 C345.809404,35.9164638 345.286067,34.8881243 344.387728,34.1664534 L354.019452,34.1664534 C353.12028,34.889791 352.595277,35.9222972 352.401943,36.6039679 L349.20359,49.5182114 Z M363.957012,34.1664534 L370.493717,34.1664534 C372.853731,34.1664534 373.617902,36.7106352 373.645403,36.8039691 L377.120423,50.8332192 L370.587051,50.8332192 L356.269466,50.8332192 L349.736094,50.8332192 L353.206948,36.8189692 C353.238615,36.7106352 354.002786,34.1664534 356.3628,34.1664534 L363.957012,34.1664534 Z M388.678825,54.5199079 C388.641325,54.3690736 387.722986,50.8332192 384.717969,50.8332192 L377.977928,50.8332192 L374.450407,36.5898011 C374.129572,35.4631278 372.889565,33.3331151 370.493717,33.3331151 L363.756177,33.3331151 L360.230323,18.6855279 C360.191989,18.535527 359.272817,14.9996726 356.269466,14.9996726 L342.138548,14.9996726 C339.133531,14.9996726 338.215192,18.535527 338.176858,18.6896946 L334.650171,33.3331151 L327.91263,33.3331151 C325.516783,33.3331151 324.276775,35.4631278 323.951774,36.6039679 L320.428419,50.8332192 L313.688379,50.8332192 C310.683361,50.8332192 309.765022,54.3690736 309.726689,54.5232412 L306,70 L334.449336,70 L335.507676,70 L362.899505,70 L363.957012,70 L392.406348,70 L388.678825,54.5199079 Z M332.362907,15.0000893 L322.362847,15.0000893 L322.362847,15.8334276 L332.362907,15.8334276 L332.362907,15.0000893 Z M366.529777,15.8334276 L376.529836,15.8334276 L376.529836,15.0000893 L366.529777,15.0000893 L366.529777,15.8334276 Z M339.08803,12.0879053 L332.206323,5.20619766 L331.617152,5.79536783 L338.49886,12.6770755 L339.08803,12.0879053 Z M366.789195,5.04686337 L366.200025,4.4576932 L359.318317,11.3394008 L359.907488,11.928571 L366.789195,5.04686337 Z M349.863011,0 L349.029673,0 L349.029673,9.16672123 L349.863011,9.16672123 L349.863011,0 Z" id="Gold"></path>
            </g>
        </g>
    </g>
</svg>