<svg xmlns="http://www.w3.org/2000/svg" width="30" height="30" viewBox="0 0 30 30">
    <g fill="none" fill-rule="evenodd">
        <circle cx="15" cy="15" r="14" stroke="#FFF" stroke-width="2"/>
        <path fill="#FFF" d="M14.99 9.293c.97 0 1.76.784 1.76 1.748 0 .963-.79 1.748-1.76 1.748-.971 0-1.762-.785-1.762-1.748 0-.964.79-1.748 1.761-1.748zm0 5.97c-2.346 0-4.254-1.894-4.254-4.222 0-2.329 1.908-4.223 4.253-4.223 2.346 0 4.253 1.894 4.253 4.223 0 2.328-1.907 4.222-4.253 4.222zm1.73 3.446l2.378 2.361a1.23 1.23 0 0 1 0 1.75 1.251 1.251 0 0 1-1.76 0L15 20.5l-2.336 2.32a1.25 1.25 0 0 1-.882.362c-.318 0-.637-.121-.88-.362a1.231 1.231 0 0 1-.001-1.75l2.378-2.36a8.012 8.012 0 0 1-2.47-1.016 1.232 1.232 0 0 1-.39-1.706 1.25 1.25 0 0 1 1.718-.39 5.433 5.433 0 0 0 5.726 0 1.25 1.25 0 0 1 1.718.39 1.232 1.232 0 0 1-.39 1.706 8 8 0 0 1-2.47 1.015z"/>
        <path d="M0 0h30v30H0z"/>
    </g>
</svg>
