<?xml version="1.0" encoding="UTF-8"?>
<svg width="65px" height="72px" viewBox="0 0 65 72" version="1.1" xmlns="http://www.w3.org/2000/svg" xmlns:xlink="http://www.w3.org/1999/xlink">
    <!-- Generator: Sketch 43.1 (39012) - http://www.bohemiancoding.com/sketch -->
    <title>Security</title>
    <desc>Created with Sketch.</desc>
    <defs></defs>
    <g id="Page-1" stroke="none" stroke-width="1" fill="none" fill-rule="evenodd">
        <g id="Leroy" transform="translate(-624.000000, -843.000000)" stroke="#4EAF46" fill="#000000">
            <g id="Group-15" transform="translate(80.000000, 843.000000)">
                <path d="M607.115696,33.8577769 C607.095255,33.9428118 607.074814,34.067911 607.043743,34.2723216 C605.830362,42.0922534 600.455181,61.2332617 576.779528,70.1709106 L576.607823,70.1766341 C552.947705,61.2365323 547.570889,42.1094239 546.357508,34.294398 C546.326437,34.0899874 546.306814,33.9648881 546.286373,33.8798533 C545.36816,22.048568 546.046804,8.10040649 546.24222,4.61970285 C547.964993,5.98680092 553.066263,9.41354016 560.895189,9.41354016 C569.657045,9.41354016 575.668352,3.02693548 576.701034,1.85034808 C577.732899,3.02693548 583.744206,9.41354016 592.506879,9.41354016 C600.334987,9.41354016 605.435441,5.95900107 607.160666,4.57963837 C607.356083,8.06851843 608.033091,22.0281269 607.115696,33.8577769 M607.927615,3.7063963 L607.87038,2.83151895 L607.236707,3.43739195 C607.182742,3.48890342 601.735609,8.59589777 592.506879,8.59589777 C583.302679,8.59589777 577.239861,1.22648694 577.179355,1.15208148 L577.056709,1 L576.344542,1 L576.222713,1.15208148 C576.162208,1.22648694 570.09939,8.59589777 560.895189,8.59589777 C551.665642,8.59589777 546.217691,3.53223847 546.163726,3.480727 L545.530871,2.88139513 L545.473636,3.75054899 C545.463825,3.91489511 544.412336,20.3576835 545.474454,33.9918703 L545.485901,34.1423165 L545.51043,34.1668458 C545.520242,34.2273513 545.533324,34.3115685 545.549677,34.4194973 C546.78677,42.3849694 552.266609,61.8914638 576.396871,70.9705649 L576.472094,71 L576.87601,70.9852824 L577.005197,70.9591179 C601.135459,61.8800168 606.615299,42.3661636 607.851574,34.3974209 C607.868744,34.2894921 607.881827,34.2044573 607.890821,34.1447694 L607.926797,33.969794 C608.989732,20.3356072 607.938244,3.87074242 607.927615,3.7063963 M569.277414,46.1862706 L559.652945,36.5618021 L559.074054,37.1398753 L569.277414,47.342417 L597.318459,19.3013713 L596.740386,18.7232981 L569.277414,46.1862706 Z" id="Security"></path>
            </g>
        </g>
    </g>
</svg>