<?xml version="1.0" encoding="UTF-8"?>
<svg width="72px" height="71px" viewBox="0 0 72 71" version="1.1" xmlns="http://www.w3.org/2000/svg" xmlns:xlink="http://www.w3.org/1999/xlink">
    <!-- Generator: Sketch 43.1 (39012) - http://www.bohemiancoding.com/sketch -->
    <title>User</title>
    <desc>Created with Sketch.</desc>
    <defs></defs>
    <g id="Page-1" stroke="none" stroke-width="1" fill="none" fill-rule="evenodd">
        <g id="Leroy" transform="translate(-136.000000, -843.000000)" stroke="#4EAF46" fill="#000000">
            <g id="Group-15" transform="translate(80.000000, 843.000000)">
                <path d="M76.8982899,19.8759443 C77.5386139,18.487258 78.4767018,18.1007799 78.5127145,18.0858478 L78.7858843,17.9830797 L78.7964246,17.690586 C78.7981814,17.6273441 79.0239197,11.3400473 80.6076018,8.35099012 C82.1350689,5.46470102 88.7087109,4.37465696 88.7745878,4.36323828 L89.2998468,4.27891578 L88.5145934,2.12078664 C91.1347396,2.61091121 99.9174557,4.43175032 102.790569,7.30837747 L103.278937,7.7949886 C106.114281,10.9957304 105.987798,17.5948448 105.986041,17.6651136 L105.984284,17.9435535 L106.230225,18.0691589 C106.237252,18.0726724 106.999668,18.4767177 107.645262,19.8759443 C107.952688,20.5443758 107.745395,21.0195683 107.321147,21.8706986 C106.997911,22.5171711 106.596501,23.3217484 106.494611,24.4170626 C106.318939,26.3274944 104.399724,26.5769484 104.318036,26.5874887 L104.030813,26.6208664 L103.947369,26.8957929 C103.911356,27.0152498 100.223125,38.8634402 92.4268064,38.8634402 C84.6225828,38.8634402 80.6216556,27.0055878 80.5821294,26.886131 L80.4934151,26.619988 L80.2149751,26.5874887 C80.1341661,26.5769484 78.2167074,26.3274944 78.0410355,24.4170626 C77.9400242,23.3235051 77.5403706,22.5198062 77.2188911,21.8733337 C76.7964002,21.021325 76.5891074,20.5452542 76.8982899,19.8759443 M77.1661895,24.4978716 C77.3418614,26.4074251 78.8561531,27.2040971 79.8355239,27.414025 C80.4837531,29.241891 84.5540707,39.7417997 92.4268064,39.7417997 C100.29515,39.7417997 104.094933,29.2647283 104.704515,27.4122683 C105.683885,27.2005836 107.194664,26.4030333 107.369457,24.4978716 C107.455536,23.5668106 107.80161,22.8746634 108.106401,22.2633252 C108.536797,21.4034114 108.941721,20.5909289 108.442812,19.5079117 C107.877149,18.2808436 107.221014,17.6861942 106.867036,17.4341051 C106.867914,16.0542024 106.688729,9.60880084 103.393124,6.66541837 L103.353598,6.63028399 C103.214817,6.49501664 103.063739,6.361506 102.902999,6.23063044 L102.661451,6.0171891 L102.661451,6.04178317 C98.4637708,2.88144591 88.3679074,1.19587415 87.9120389,1.12033524 L87.1715819,1 L88.1158183,3.5920387 C86.4434219,3.92405856 81.3058976,5.15464014 79.8311321,7.93991791 C78.3247456,10.7840458 77.988334,16.1394032 77.9294839,17.399849 C77.5061146,17.6405195 76.6839702,18.2439525 76.1007395,19.5079117 C75.600953,20.5909289 76.0049984,21.4034114 76.4327594,22.2642036 C76.7357934,22.8755418 77.0801103,23.567689 77.1661895,24.4978716 M120.080284,47.3105351 C113.48117,45.4782773 103.400239,42.7281339 103.400239,42.7281339 L102.960181,42.608677 L97.2482092,67.0147723 L94.2073288,53.2517583 L97.1103067,44.0184439 L92.1212251,43.8199347 L92.1212251,43.8129078 L92.1212251,43.8164213 L92.1212251,43.8129078 L92.1212251,43.8199347 L87.0091732,44.0184439 L89.8418824,53.2517583 L86.7746512,67.0147723 L81.0486261,42.608677 L80.6032978,42.7281339 C80.6032978,42.7281339 70.5179748,45.4782773 63.9197387,47.3105351 C57.078197,49.2113049 56.9982663,53.2447315 57.0000231,53.4590512 L58.6487037,70.3200389 L59.5226714,70.234838 L57.8748691,53.4160115 C57.8748691,53.3808772 57.9468945,49.8806148 64.1507472,48.1572736 C69.929474,46.5516325 78.3801701,44.2433039 80.3880998,43.6952077 L86.7720162,70.9744167 L90.6719321,53.3272972 L90.6965261,53.2131105 L88.0834068,44.8511287 L91.9973765,44.6947807 L95.9122245,44.8511287 L93.2999835,53.2131105 L97.2244935,70.9744167 L103.60841,43.6952077 C105.615461,44.2433039 114.066157,46.5516325 119.844884,48.1572736 C125.99867,49.8665611 126.119884,53.2745957 126.123397,53.3729719 L124.473838,70.234838 L125.348684,70.3200389 L127,53.4160115 C127,53.2447315 126.920948,49.2113049 120.080284,47.3105351 M105.296265,62.152965 L116.714938,62.152965 L116.714938,61.2746056 L105.296265,61.2746056 L105.296265,62.152965 Z" id="User"></path>
            </g>
        </g>
    </g>
</svg>