<svg xmlns="http://www.w3.org/2000/svg" width="30" height="30" viewBox="0 0 30 30">
    <g fill="none" fill-rule="evenodd">
        <path d="M0 0h30v30H0z"/>
        <ellipse cx="15" cy="15" stroke="#FFF" stroke-width="2" rx="14" ry="14"/>
        <path fill="#FFF" d="M15.495 20.408s.308-.034.465-.2c.144-.152.14-.44.14-.44s-.02-1.34.615-1.539c.625-.195 1.428 1.297 2.28 1.871.643.434 1.132.339 1.132.339l2.277-.031s1.19-.072.626-.991c-.047-.076-.33-.68-1.692-1.923-1.429-1.3-1.237-1.09.482-3.34 1.047-1.37 1.466-2.206 1.335-2.563-.124-.342-.895-.251-.895-.251l-2.562.015s-.19-.025-.331.057c-.138.081-.227.27-.227.27s-.405 1.06-.946 1.962c-1.142 1.902-1.598 2.003-1.784 1.885-.435-.276-.326-1.107-.326-1.697 0-1.844.285-2.612-.555-2.81-.278-.067-.483-.11-1.196-.118-.915-.009-1.688.003-2.127.214-.292.14-.517.452-.38.47.17.022.554.102.757.373.263.352.253 1.139.253 1.139s.151 2.17-.352 2.44c-.345.184-.819-.193-1.837-1.919-.521-.884-.914-1.86-.914-1.86s-.076-.183-.212-.282a1.06 1.06 0 0 0-.394-.155l-2.435.016s-.366.01-.5.166c-.12.138-.01.425-.01.425s1.907 4.38 4.067 6.586c1.98 2.023 4.227 1.89 4.227 1.89h1.019z"/>
    </g>
</svg>
